<svg width="212" height="193" viewBox="0 0 212 193" fill="none" xmlns="http://www.w3.org/2000/svg">
<path d="M181.587 48.0341L181.587 48.0341L181.584 48.0398C180.298 50.6731 179.666 53.6191 179.666 56.8574V57.2383C179.666 62.3461 181.049 66.5568 183.903 69.7679L183.905 69.7706C186.786 72.9872 190.551 74.5859 195.109 74.5859C198.127 74.5859 200.834 73.8604 203.196 72.3843C205.571 70.9125 207.387 68.8607 208.637 66.2561C209.902 63.6432 210.523 60.7185 210.523 57.502V57.1211C210.523 51.9754 209.132 47.7437 206.256 44.5315C203.394 41.3122 199.627 39.7148 195.051 39.7148C192.089 39.7148 189.414 40.4317 187.056 41.8849L187.056 41.8849L187.052 41.887C184.713 43.3411 182.892 45.4018 181.587 48.0341ZM200.816 49.0234L200.816 49.0234L200.822 49.0314C202.313 50.9608 203.104 53.5394 203.104 56.8574C203.104 60.6179 202.318 63.4046 200.872 65.3387C199.446 67.2289 197.557 68.1621 195.109 68.1621C192.68 68.1621 190.788 67.2374 189.341 65.3606C187.89 63.4538 187.115 60.866 187.115 57.502C187.115 53.6572 187.913 50.8599 189.368 48.9717C190.821 47.0872 192.687 46.168 195.051 46.168C197.474 46.168 199.366 47.1069 200.816 49.0234Z" fill="white" stroke="white" stroke-width="2"/>
<path d="M143.669 67.4787L143.669 67.4786L143.663 67.4852C143.026 68.2132 142.719 69.1163 142.719 70.1582C142.719 71.1669 143.029 72.0423 143.668 72.7492L143.668 72.7493L143.674 72.7556C144.364 73.4933 145.356 73.8223 146.559 73.8223C147.759 73.8223 148.75 73.4942 149.44 72.7587C150.121 72.0539 150.457 71.1754 150.457 70.1582C150.457 69.1081 150.125 68.2017 149.446 67.4754C148.757 66.7174 147.764 66.377 146.559 66.377C145.352 66.377 144.358 66.7184 143.669 67.4787ZM166.775 33.625V33.125H166.275H160.855H160.355V33.625V40.8008H155.084H154.584V41.3008V45.4902V45.9902H155.084H160.355V65.1484C160.355 67.9139 160.986 70.1247 162.318 71.7103C163.668 73.3172 165.653 74.0859 168.18 74.0859C169.576 74.0859 171.007 73.8835 172.472 73.4822L172.84 73.3814V73V68.6055V67.987L172.235 68.1166C171.153 68.3484 170.334 68.457 169.762 68.457C168.56 68.457 167.842 68.1606 167.451 67.6999C167.028 67.1809 166.775 66.358 166.775 65.1484V45.9902H172.193H172.693V45.4902V41.3008V40.8008H172.193H166.775V33.625Z" stroke="white"/>
<path d="M84.1399 94.4084L84.134 94.3679L84.1248 94.3279L77.3865 65.119L77.2077 64.3438H76.4121H70.7871H69.5165L69.8151 65.5787L80.1276 108.235L80.3126 109H81.0996H86.2266H86.9755L87.1862 108.281L96.0065 78.19L104.512 108.272L104.718 109H105.475H110.602H111.388L111.573 108.236L121.915 65.5794L122.215 64.3438H120.943H115.289H114.491L114.314 65.1225L107.693 94.3022L107.685 94.3345L107.68 94.3672L107.584 94.9783L107.563 94.8878L107.558 94.8652L107.552 94.8428L99.3193 65.0772L99.1164 64.3438H98.3555H93.6094H92.8534L92.6473 65.071L84.2098 94.8367L84.2049 94.8539L84.1399 94.4084Z" fill="white" stroke="white" stroke-width="2"/>
<path d="M38.1399 94.4084L38.134 94.3679L38.1248 94.3279L31.3865 65.119L31.2077 64.3438H30.4121H24.7871H23.5165L23.8151 65.5787L34.1276 108.235L34.3126 109H35.0996H40.2266H40.9755L41.1862 108.281L50.0065 78.19L58.5123 108.272L58.7182 109H59.4746H64.6016H65.3881L65.5734 108.236L75.9152 65.5794L76.2148 64.3438H74.9434H69.2891H68.4906L68.3139 65.1225L61.6928 94.3022L61.6854 94.3345L61.6802 94.3672L61.5836 94.9783L61.563 94.8878L61.5579 94.8652L61.5517 94.8428L53.3193 65.0772L53.1164 64.3438H52.3555H47.6094H46.8534L46.6473 65.071L38.2098 94.8367L38.2049 94.8539L38.1399 94.4084Z" fill="white" stroke="white" stroke-width="2"/>
<path d="M38.7008 113.62L38.6979 113.6L38.6933 113.58L20.4999 34.7157L20.4105 34.3281H20.0127H4.8252H4.18991L4.3392 34.9456L32.1829 150.117L32.2754 150.5H32.6689H46.5117H46.8862L46.9915 150.141L71.5921 66.2139L71.5978 66.1945L71.6019 66.1747L72.9316 59.7573L74.2614 66.1747L74.265 66.1921L74.2698 66.2093L98.0003 150.136L98.1032 150.5H98.4814H112.324H112.717L112.81 150.118L140.733 34.9459L140.883 34.3281H140.247H124.98H124.581L124.493 34.7175L106.616 113.503L106.612 113.519L106.61 113.535L104.563 126.474L101.975 115.085L101.972 115.073L101.969 115.062L79.7417 34.6948L79.6403 34.3281H79.2598H66.4453H66.0673L65.9643 34.6918L43.183 115.059L43.18 115.069L43.1775 115.08L40.538 126.218L38.7008 113.62Z" stroke="white"/>
<path d="M60.6452 65.4806L60.6422 65.4603L60.6376 65.4403L53.8993 36.2314L53.8099 35.8438H53.4121H47.7871H47.1518L47.3011 36.4612L57.6136 79.1175L57.7061 79.5H58.0996H63.2266H63.601L63.7064 79.1406L72.8177 48.0567L72.8234 48.0373L72.8275 48.0175L73.0117 47.1284L73.1959 48.0175L73.1996 48.0349L73.2044 48.0521L81.9935 79.136L82.0964 79.5H82.4746H87.6016H87.9948L88.0875 79.1178L98.4293 36.4616L98.5791 35.8438H97.9434H92.2891H91.8898L91.8015 36.2331L85.1804 65.4128L85.1767 65.429L85.1741 65.4453L84.6717 68.6219L84.0755 65.9986L84.0729 65.9873L84.0698 65.9761L75.8374 36.2105L75.736 35.8438H75.3555H70.6094H70.2314L70.1283 36.2074L61.6908 65.973L61.6879 65.9835L61.6854 65.9941L61.0878 68.5156L60.6452 65.4806Z" stroke="white"/>
</svg>
